<svg width="113" height="61" viewBox="0 0 113 61" fill="none" xmlns="http://www.w3.org/2000/svg">
<path d="M97.4046 2H99.4046V0H97.4046V2ZM95.9904 59.9142C96.7714 60.6953 98.0378 60.6953 98.8188 59.9142L111.547 47.1863C112.328 46.4052 112.328 45.1389 111.547 44.3579C110.766 43.5768 109.499 43.5768 108.718 44.3579L97.4046 55.6716L86.0909 44.3579C85.3099 43.5768 84.0435 43.5768 83.2625 44.3579C82.4814 45.1389 82.4814 46.4052 83.2625 47.1863L95.9904 59.9142ZM-0.000244141 4H97.4046V0H-0.000244141V4ZM95.4046 2V58.5H99.4046V2H95.4046Z" fill="black"/>
</svg>
