<svg width="94" height="103" viewBox="0 0 94 103" fill="none" xmlns="http://www.w3.org/2000/svg">
<path d="M75.1711 100.226L75.2398 102.734L77.6626 102.734L77.6626 100.295L75.1711 100.226ZM76.9327 1.47168C75.9597 0.46542 74.3822 0.421601 73.4092 1.37381L57.5532 16.8909C56.5802 17.8432 56.5802 19.4308 57.5532 20.4371C58.5262 21.4433 60.1038 21.4872 61.0768 20.5349L75.171 6.74193L89.2652 21.3179C90.2382 22.3242 91.8157 22.368 92.7887 21.4158C93.7617 20.4636 93.7617 18.8759 92.7887 17.8697L76.9327 1.47168ZM0.919308 102.734L75.2398 102.734L75.1023 97.7172L0.781823 97.7172L0.919308 102.734ZM77.6626 100.295L77.6625 3.26501L72.6794 3.1266L72.6795 100.156L77.6626 100.295Z" fill="black"/>
</svg>
