<svg width="78" height="424" viewBox="0 0 78 424" fill="none" xmlns="http://www.w3.org/2000/svg">
<path d="M45.5487 45.4101L42.6696 43.3898L45.5487 45.4101ZM6.50786 163.374L3.00888 163.227L6.50786 163.374ZM5.57417 192.75L2.07518 192.603L5.57417 192.75ZM48.6484 403.145L51.6026 401.298L48.6484 403.145ZM61.734 423.85L60.0058 383.465L25.8944 404.792L61.734 423.85ZM4.07251 239.996L0.573528 239.848L4.07251 239.996ZM9.95654 307.568L13.3836 306.889L9.95654 307.568ZM20.2457 93.6402L23.5266 94.8947L20.2457 93.6402ZM72.2313 0.979686L42.6696 43.3898L48.4278 47.4304L77.9894 5.02031L72.2313 0.979686ZM3.00888 163.227L2.07518 192.603L9.07315 192.897L10.0068 163.521L3.00888 163.227ZM2.07518 192.603L0.573528 239.848L7.5715 240.143L9.07315 192.897L2.07518 192.603ZM0.573528 239.848C-0.155177 262.775 1.84414 285.735 6.52948 308.247L13.3836 306.889C8.81142 284.922 6.8604 262.516 7.5715 240.143L0.573528 239.848ZM51.6026 401.298C33.2952 372.331 20.3471 340.346 13.3836 306.889L6.52948 308.247C13.6653 342.532 26.9339 375.308 45.6943 404.992L51.6026 401.298ZM16.9649 92.3857C8.4933 115.047 3.77976 138.973 3.00888 163.227L10.0068 163.521C10.7536 140.026 15.3198 116.848 23.5266 94.8947L16.9649 92.3857ZM42.6696 43.3898C32.0881 58.5704 23.4534 75.0291 16.9649 92.3857L23.5266 94.8947C29.8122 78.0807 38.177 62.1365 48.4278 47.4304L42.6696 43.3898Z" fill="#060606"/>
</svg>
