<svg width="231" height="241" viewBox="0 0 231 241" fill="none" xmlns="http://www.w3.org/2000/svg">
<g clip-path="url(#clip0_70_110)">
<mask id="mask0_70_110" style="mask-type:luminance" maskUnits="userSpaceOnUse" x="0" y="0" width="241" height="241">
<path d="M241 0H0V241H241V0Z" fill="white"/>
</mask>
<g mask="url(#mask0_70_110)">
<path d="M241 0H0V241H241V0Z" fill="white"/>
<path d="M245.82 -4.81982H0V241H245.82V-4.81982Z" fill="black"/>
<path d="M62.7277 106.04L53.02 110.161L109.014 242.075L118.722 237.954L62.7277 106.04Z" fill="white"/>
<path d="M24.1 81.9404H0V245.82H24.1V81.9404Z" fill="white"/>
<path d="M159.06 96.4004H125.32V241H159.06V96.4004Z" fill="white"/>
<path d="M53.02 72.3003H28.92V245.82H53.02V72.3003Z" fill="white"/>
<path d="M66.424 159.06L53.02 162.402L73.3416 243.908L86.7456 240.566L66.424 159.06Z" fill="white"/>
<path d="M241 33.7402H202.44V241H241V33.7402Z" fill="white"/>
<path d="M197.62 62.6602H163.88V241H197.62V62.6602Z" fill="#FDFDFD"/>
<path d="M45.79 81.9404H36.15C34.819 81.9404 33.74 80.8618 33.74 79.5313C33.74 78.2007 34.819 77.1221 36.15 77.1221H45.79C47.121 77.1221 48.2 78.2007 48.2 79.5313C48.2 80.8618 47.121 81.9404 45.79 81.9404Z" fill="black"/>
<path d="M14.4599 96.4004H9.63995C6.97793 96.4004 4.81995 98.5584 4.81995 101.22C4.81995 103.882 6.97793 106.04 9.63995 106.04H14.4599C17.122 106.04 19.2799 103.882 19.2799 101.22C19.2799 98.5584 17.122 96.4004 14.4599 96.4004Z" fill="black"/>
<path d="M33.74 89.1694C33.74 87.8391 34.819 86.7603 36.15 86.7603H45.79C47.121 86.7603 48.2 87.8391 48.2 89.1694C48.2 90.4998 47.121 91.5786 45.79 91.5786H36.15C34.819 91.5786 33.74 90.4998 33.74 89.1694Z" fill="black"/>
<path d="M163.88 106.04L161.033 103.651L115.68 157.7L118.527 160.089L163.88 106.04Z" fill="black"/>
<path d="M16.8699 91.5801H7.22995C5.89894 91.5801 4.81995 90.5015 4.81995 89.1709C4.81995 87.8403 5.89894 86.7617 7.22995 86.7617H16.8699C18.201 86.7617 19.2799 87.8403 19.2799 89.1709C19.2799 90.5015 18.201 91.5801 16.8699 91.5801Z" fill="black"/>
<path d="M228.95 62.6616C230.281 62.6616 231.36 63.7403 231.36 65.0708C231.36 66.4014 230.281 67.48 228.95 67.48H214.49C213.159 67.48 212.08 66.4014 212.08 65.0708C212.08 63.7403 213.159 62.6616 214.49 62.6616H228.95Z" fill="black"/>
<path d="M187.98 108.45C187.98 104.457 184.743 101.22 180.75 101.22C176.757 101.22 173.52 104.457 173.52 108.45V200.03C173.52 204.023 176.757 207.26 180.75 207.26C184.743 207.26 187.98 204.023 187.98 200.03V108.45Z" fill="black"/>
<path d="M221.72 77.1204C227.044 77.1204 231.36 81.4364 231.36 86.7604C231.36 92.0844 227.044 96.4004 221.72 96.4004C216.396 96.4004 212.08 92.0844 212.08 86.7604C212.08 81.4364 216.396 77.1204 221.72 77.1204Z" fill="black"/>
<path d="M228.95 53.0185C230.281 53.0185 231.36 51.9399 231.36 50.6094C231.36 49.2788 230.281 48.2002 228.95 48.2002H214.49C213.159 48.2002 212.08 49.2788 212.08 50.6094C212.08 51.9399 213.159 53.0185 214.49 53.0185H228.95Z" fill="black"/>
<path d="M123.929 91.5802L120.5 93.6406L159.736 158.941L163.165 156.88L123.929 91.5802Z" fill="black"/>
<path d="M48.2 103.63C48.2 99.6374 44.963 96.4004 40.97 96.4004C36.977 96.4004 33.74 99.6374 33.74 103.63V118.09C33.74 122.083 36.977 125.32 40.97 125.32C44.963 125.32 48.2 122.083 48.2 118.09V103.63Z" fill="black"/>
</g>
</g>
<defs>
<clipPath id="clip0_70_110">
<rect width="241" height="241" fill="white"/>
</clipPath>
</defs>
</svg>
